<?xml version="1.0" encoding="UTF-8"?>
<!--Generator: Apple Native CoreSVG 326-->
<!DOCTYPE svg
PUBLIC "-//W3C//DTD SVG 1.1//EN"
       "http://www.w3.org/Graphics/SVG/1.1/DTD/svg11.dtd">
<svg version="1.1" xmlns="http://www.w3.org/2000/svg" xmlns:xlink="http://www.w3.org/1999/xlink" viewBox="0 0 127.5 127.562">
 <g>
  <rect height="127.562" opacity="0" width="127.5" x="0" y="0"/>
  <path d="M10.6875 63.75C10.6875 58.0625 11.5625 52.5625 13.1875 47.5L3.375 43.375C1.25 49.8125 0 56.625 0 63.75C0 70.8125 1.25 77.6875 3.4375 84.125L13.1875 80C11.5625 74.9375 10.6875 69.4375 10.6875 63.75ZM39.4375 16.375L35.4375 6.75C23.0625 12.9375 12.875 23.125 6.6875 35.5L16.4375 39.5625C21.4375 29.625 29.5625 21.5 39.4375 16.375ZM63.6875 10.625C69.375 10.625 74.875 11.5 80.0625 13.1875L84.0625 3.4375C77.625 1.25 70.75 0 63.6875 0C56.625 0 49.6875 1.25 43.25 3.4375L47.375 13.1875C52.5 11.5 58 10.625 63.6875 10.625ZM111.062 39.5L120.75 35.5C114.5 23.125 104.312 12.9375 91.9375 6.6875L87.9375 16.375C97.8125 21.4375 106 29.5625 111.062 39.5ZM116.875 63.75C116.875 69.4375 116 74.9375 114.375 80.0625L124.062 84.1875C126.25 77.75 127.5 70.8125 127.5 63.75C127.5 56.625 126.25 49.75 124.062 43.3125L114.312 47.4375C116 52.5625 116.875 58.0625 116.875 63.75ZM87.9375 111.062L91.9375 120.812C104.375 114.562 114.562 104.375 120.688 92L111.125 88C106.062 97.9375 97.875 106 87.9375 111.062ZM63.75 116.875C58 116.875 52.5 116 47.375 114.312L43.3125 124.062C49.75 126.25 56.6875 127.5 63.75 127.5C70.8125 127.5 77.6875 126.25 84.0625 124.125L80 114.375C74.875 116 69.4375 116.875 63.75 116.875ZM16.4375 88L6.75 92C13 104.375 23.0625 114.562 35.4375 120.75L39.4375 111C29.5625 105.938 21.4375 97.875 16.4375 88Z" fill="#98989d"/>
  <path d="M34.75 63.75C34.75 66.8125 36.875 68.9375 40.0625 68.9375L58.4375 68.9375L58.4375 87.375C58.4375 90.5 60.5625 92.6875 63.625 92.6875C66.75 92.6875 68.9375 90.5 68.9375 87.375L68.9375 68.9375L87.375 68.9375C90.5 68.9375 92.6875 66.8125 92.6875 63.75C92.6875 60.625 90.5 58.4375 87.375 58.4375L68.9375 58.4375L68.9375 40.0625C68.9375 36.875 66.75 34.75 63.625 34.75C60.5625 34.75 58.4375 36.875 58.4375 40.0625L58.4375 58.4375L40.0625 58.4375C36.875 58.4375 34.75 60.625 34.75 63.75Z" fill="#98989d"/>
 </g>
</svg>
